<svg id="Layer_1" data-name="Layer 1" xmlns="http://www.w3.org/2000/svg" xmlns:xlink="http://www.w3.org/1999/xlink" viewBox="0 0 1499.88 855.03"><defs><style>.cls-1,.cls-2,.cls-3{stroke:#ffb654;stroke-width:13px;}.cls-1,.cls-2,.cls-3,.cls-5,.cls-9{stroke-miterlimit:10;}.cls-1{fill:url(#Summer);}.cls-2{fill:url(#Summer-2);}.cls-3{fill:url(#Summer-3);}.cls-4{fill:url(#linear-gradient);}.cls-5{font-size:280px;stroke-width:4px;}.cls-5,.cls-9{stroke:#fff;font-family:MasonSansOT-Bold, Mason Sans OT;font-weight:700;}.cls-6,.cls-7,.cls-8{font-size:230px;}.cls-6{letter-spacing:-0.04em;}.cls-7{letter-spacing:-0.03em;}.cls-8{letter-spacing:0em;}.cls-9{font-size:130px;}.cls-10{letter-spacing:-0.02em;}.cls-11{letter-spacing:-0.03em;}.cls-12{letter-spacing:-0.02em;}.cls-13{letter-spacing:0em;}.cls-14{letter-spacing:-0.04em;}</style><radialGradient id="Summer" cx="208" cy="374.18" r="216.86" gradientUnits="userSpaceOnUse"><stop offset="0" stop-color="#fff"/><stop offset="0.09" stop-color="#ffedd8"/><stop offset="0.21" stop-color="#ffd5a7"/><stop offset="0.33" stop-color="#ffc17d"/><stop offset="0.46" stop-color="#ffb05b"/><stop offset="0.59" stop-color="#ffa340"/><stop offset="0.72" stop-color="#ff9a2d"/><stop offset="0.86" stop-color="#ff9522"/><stop offset="1" stop-color="#ff931e"/></radialGradient><radialGradient id="Summer-2" cx="590.08" cy="404.27" r="153.61" xlink:href="#Summer"/><radialGradient id="Summer-3" cx="427.36" cy="683.77" r="153.61" xlink:href="#Summer"/><linearGradient id="linear-gradient" x1="263.8" y1="486.41" x2="1244" y2="486.41" gradientUnits="userSpaceOnUse"><stop offset="0" stop-color="#ff7bac"/><stop offset="0.22" stop-color="#ff7bac" stop-opacity="0.76"/><stop offset="0.6" stop-color="#ff7bac" stop-opacity="0.36"/><stop offset="0.87" stop-color="#ff7bac" stop-opacity="0.1"/><stop offset="1" stop-color="#ff7bac" stop-opacity="0"/></linearGradient></defs><title>alvari</title><text x="-154.04" y="-120.57"/><polygon class="cls-1" points="208.03 142.98 6.54 260.75 6.5 491.95 207.96 605.38 409.46 487.61 409.5 256.41 208.03 142.98"/><polygon class="cls-2" points="590.11 240.5 447.38 323.92 447.36 487.69 590.06 568.04 732.79 484.62 732.81 320.85 590.11 240.5"/><polygon class="cls-3" points="427.38 520 284.65 603.42 284.63 767.19 427.33 847.54 570.06 764.12 570.09 600.35 427.38 520"/><path class="cls-4" d="M330.16,542.2v29.68H298.8v-50.4c0-67.2,25.2-111.72,69.16-131.32,44,19.6,69.44,64.12,69.44,131.32v50.4H406V542.2ZM406,512c-1.4-56.28-19.32-74.2-38.08-85.68-18.76,11.48-36.4,29.4-37.8,85.68Z" transform="translate(-154.04 -120.57)"/><path class="cls-4" d="M482.18,571.88V470.22h23.46V549.8h42.78v22.08Z" transform="translate(-154.04 -120.57)"/><path class="cls-4" d="M604.08,574.87h-9L547,470.22h26.22l26.22,58,26.68-58h26Z" transform="translate(-154.04 -120.57)"/><path class="cls-4" d="M725.29,571.88V553.25H687.11v18.63H663.65V541.29c0-38.18,15.18-63.48,42.78-75.44,27.14,12,42.32,37.26,42.32,75.44v30.59ZM706.2,492.3c-9.43,5.52-17.25,14.72-18.86,38.87h37.72C723.68,507,715.63,497.82,706.2,492.3Z" transform="translate(-154.04 -120.57)"/><path class="cls-4" d="M893.42,596.49c-20-6.67-41.63-20.7-76.59-60h-6.67v35.42H786.7V470.22h36.8c21.16,0,34.73,14.49,34.73,32.89,0,10.81-5.29,19.32-15,26.68a360.65,360.65,0,0,0,28.29,28.29c16.1,14.95,29.21,23,45.31,25.53,21.39,3.45,31-.23,40.71-3L964,594C944.94,602.7,922.17,606.38,893.42,596.49ZM820.05,492.3h-9.89v22.08h8.51c7.82,0,15.64-4.83,15.64-11C834.31,496.9,828.79,492.3,820.05,492.3Z" transform="translate(-154.04 -120.57)"/><path class="cls-4" d="M893,451.82,876.4,435.26,893,418.7l16.56,16.56Zm12.65,120.06V470.22h23.46V571.88Zm36.11-120.06-16.56-16.56,16.56-16.56,16.56,16.56Z" transform="translate(-154.04 -120.57)"/><text class="cls-5" transform="translate(116.77 451.31)">A<tspan class="cls-6" x="190.68" y="0">l</tspan><tspan class="cls-7" x="273.94" y="0">v</tspan><tspan class="cls-8" x="375.6" y="0">arï</tspan></text><text class="cls-9" transform="translate(591.35 670.54)">a<tspan class="cls-10" x="67.6" y="0">l</tspan><tspan class="cls-11" x="117.26" y="0">w</tspan><tspan class="cls-12" x="215.93" y="0">a</tspan><tspan class="cls-13" x="280.93" y="0">ys e</tspan><tspan class="cls-10" x="476.96" y="0">v</tspan><tspan x="536.37" y="0">o</tspan><tspan class="cls-14" x="617.1" y="0">l</tspan><tspan x="664.16" y="0">ving</tspan></text></svg>